<svg xmlns="http://www.w3.org/2000/svg" width="10.822" height="10.838" viewBox="0 0 10.822 10.838">
  <g id="Group_10" data-name="Group 10" transform="translate(-1393.246 366.56)">
    <path id="Path_30" data-name="Path 30" d="M1393.249-361.159c0-1.206,0-2.412,0-3.617a1.691,1.691,0,0,1,1.461-1.766,2.145,2.145,0,0,1,.337-.017q2.02,0,4.04,0a1.7,1.7,0,0,1,1.8,1.8c0,.233,0,.465,0,.7a.426.426,0,0,1-.42.46.425.425,0,0,1-.425-.454c0-.254,0-.508,0-.762a.845.845,0,0,0-.885-.9q-2.084-.007-4.167,0a.833.833,0,0,0-.885.85c-.014.317,0,.634-.005.952q0,3.173,0,6.346a.868.868,0,0,0,.669.966,1.282,1.282,0,0,0,.273.022q2.02,0,4.04,0a.863.863,0,0,0,.96-.951c0-.254-.007-.508,0-.761a.415.415,0,0,1,.412-.4.4.4,0,0,1,.421.365,7.122,7.122,0,0,1-.033,1.222,1.638,1.638,0,0,1-1.619,1.371q-2.158.013-4.315,0a1.642,1.642,0,0,1-1.644-1.559c-.037-1.021-.015-2.044-.018-3.067C1393.249-360.623,1393.249-360.891,1393.249-361.159Z"/>
    <path id="Path_31" data-name="Path 31" d="M1496.879-278.72h-4.755c-.063,0-.127,0-.19,0-.3-.009-.48-.165-.484-.417s.18-.429.492-.43q2.031,0,4.062,0h.878l.026-.054c-.189-.185-.381-.367-.568-.555a.44.44,0,0,1-.056-.667.442.442,0,0,1,.653.067c.285.283.561.576.855.85a1.107,1.107,0,0,1-.005,1.571c-.294.273-.569.568-.855.85a.439.439,0,0,1-.653.056.434.434,0,0,1,.052-.651c.189-.188.386-.368.579-.552Z" transform="translate(-94.048 -81.978)"/>
  </g>
</svg>
