<svg xmlns="http://www.w3.org/2000/svg" width="14.52" height="17.682" viewBox="0 0 14.52 17.682">
  <g id="Group_50" data-name="Group 50" transform="translate(0.1 0.1)">
    <path id="Path_28" data-name="Path 28" d="M2797.184-294.742c0-.283-.009-.543,0-.8a.793.793,0,0,1,.816-.828.791.791,0,0,1,.784.823c.012.259,0,.519,0,.8.207.048.4.089.585.138a5.576,5.576,0,0,1,4.186,5.418c.014,1.366-.006,2.732.013,4.1a.93.93,0,0,0,.229.541c.283.329.6.628.915.928s.558.616.358,1.077c-.191.439-.574.492-.993.492q-4.62-.006-9.24,0c-1.006,0-2.011,0-3.018,0a.868.868,0,0,1-.935-.522.839.839,0,0,1,.316-.989c.018-.017.035-.035.052-.053.38-.391.906-.722,1.1-1.19a4.679,4.679,0,0,0,.058-1.621c.013-1.117-.035-2.239.054-3.35a5.481,5.481,0,0,1,4.311-4.868C2796.9-294.673,2797.018-294.7,2797.184-294.742Zm-3.649,11.05h8.9a1.194,1.194,0,0,1-.48-1.186c.007-1.415.013-2.83,0-4.245a4.663,4.663,0,0,0-.147-1.174,3.94,3.94,0,0,0-4.428-2.85,3.943,3.943,0,0,0-3.348,3.843c-.021,1.464-.008,2.929,0,4.394A1.2,1.2,0,0,1,2793.535-283.692Z" transform="translate(-2790.827 296.372)"/>
    <path id="Path_28_-_Outline" data-name="Path 28 - Outline" d="M2797.987-296.472H2798a.892.892,0,0,1,.882.918c.009.18.007.357,0,.545,0,.06,0,.121,0,.183l.116.027c.136.031.264.06.393.094a5.669,5.669,0,0,1,4.26,5.514c.007.638.006,1.287,0,1.914,0,.716,0,1.456.008,2.184a.825.825,0,0,0,.2.477c.26.3.557.586.844.86l.064.061a1,1,0,0,1,.38,1.19,1.017,1.017,0,0,1-1.079.552h-.007q-2.394,0-4.787,0h-6.2q-.633,0-1.266,0h-.012a.974.974,0,0,1-1.017-.586.946.946,0,0,1,.342-1.1l.034-.035.014-.014c.118-.122.251-.239.38-.352a2.422,2.422,0,0,0,.7-.806,2.428,2.428,0,0,0,.073-1.062c-.012-.172-.024-.35-.022-.522,0-.344,0-.7,0-1.034,0-.762-.008-1.551.054-2.323a5.6,5.6,0,0,1,4.389-4.958c.08-.017.16-.036.252-.059l.076-.018q0-.091,0-.179c0-.189,0-.368,0-.548A.892.892,0,0,1,2797.987-296.472Zm6.1,14.318c.448,0,.738-.071.9-.432.165-.38-.006-.651-.335-.965l-.064-.061c-.291-.277-.591-.564-.858-.874a1.025,1.025,0,0,1-.253-.6c-.01-.729-.009-1.47-.008-2.187,0-.627,0-1.275-.005-1.911a5.471,5.471,0,0,0-4.11-5.323c-.126-.033-.253-.062-.387-.092l-.2-.045-.077-.018v-.079c0-.09,0-.178,0-.265,0-.185,0-.359,0-.533a.694.694,0,0,0-.686-.728h-.014a.694.694,0,0,0-.7.732c-.008.175-.006.351,0,.537,0,.085,0,.171,0,.26v.079l-.077.018-.153.036c-.094.022-.175.042-.256.059a5.4,5.4,0,0,0-4.232,4.778c-.062.763-.057,1.547-.053,2.305,0,.34,0,.692,0,1.038,0,.163.01.337.021.506a2.608,2.608,0,0,1-.087,1.152,2.6,2.6,0,0,1-.75.881c-.126.11-.256.224-.368.341l-.013.013c-.014.015-.028.03-.043.043-.329.3-.416.564-.291.878s.376.459.831.459h.011c.715,0,1.428,0,2.143,0h5.329q2.394,0,4.787,0Zm-6.129-11.133h0a4.109,4.109,0,0,1,2.477.8,3.984,3.984,0,0,1,1.462,2.16,4.712,4.712,0,0,1,.151,1.2c.017,1.375.012,2.737,0,4.247v.018a1.082,1.082,0,0,0,.437,1.084l.268.183H2793.2l.279-.184a1.051,1.051,0,0,0,.44-1.068v-.067q0-.46,0-.919c0-1.139-.009-2.318.008-3.477a4.079,4.079,0,0,1,1.013-2.62,3.907,3.907,0,0,1,2.423-1.32A4.607,4.607,0,0,1,2797.958-293.287Zm4.2,9.494a1.377,1.377,0,0,1-.306-1.068v-.018c.008-1.509.012-2.87,0-4.243a4.494,4.494,0,0,0-.144-1.149,3.784,3.784,0,0,0-3.746-2.816h0a4.4,4.4,0,0,0-.573.038,3.819,3.819,0,0,0-3.261,3.745c-.017,1.157-.012,2.334-.008,3.473q0,.46,0,.919v.066a1.358,1.358,0,0,1-.307,1.053Z" transform="translate(-2790.827 296.372)" fill="#fff"/>
    <path id="Path_29" data-name="Path 29" d="M2869.123-82.924a1.518,1.518,0,0,1-1.573,1.567,1.515,1.515,0,0,1-1.532-1.567Z" transform="translate(-2860.409 98.839)"/>
    <path id="Path_29_-_Outline" data-name="Path 29 - Outline" d="M2865.924-83.024h3.294l0,.1a1.55,1.55,0,0,1-.43,1.156,1.7,1.7,0,0,1-1.226.516h-.017a1.685,1.685,0,0,1-1.212-.528,1.533,1.533,0,0,1-.419-1.145Zm3.1.2h-2.909a1.337,1.337,0,0,0,.367.9,1.484,1.484,0,0,0,1.068.464h.015a1.5,1.5,0,0,0,1.082-.454A1.351,1.351,0,0,0,2869.024-82.824Z" transform="translate(-2860.409 98.839)" fill="#fff"/>
  </g>
</svg>
