<svg xmlns="http://www.w3.org/2000/svg" width="93" height="36" viewBox="0 0 93 36">
  <g id="Group_53" data-name="Group 53" transform="translate(-1197.711 -17.473)">
    <rect id="Rectangle_81" data-name="Rectangle 81" width="36" height="36" rx="10" transform="translate(1197.711 17.473)" fill="#c1c7ab"/>
    <text id="Hardeep" transform="translate(1241.711 32.473)" font-size="12" font-family="Livvic-SemiBold, Livvic" font-weight="600"><tspan x="0" y="0">Hardeep</tspan></text>
    <text id="Staff" transform="translate(1241.711 46.473)" font-size="10" font-family="Livvic-Medium, Livvic" font-weight="500" letter-spacing="0.1em" opacity="0.5"><tspan x="0" y="0">STAFF</tspan></text>
    <g id="Group_51" data-name="Group 51" transform="translate(-672.485 386.06)">
      <path id="Union_2" data-name="Union 2" d="M771.124-371.129a.8.8,0,0,1-.7-.955,5.728,5.728,0,0,1,2.936-4.629,8.235,8.235,0,0,1,4.463-1.169h.009a7.386,7.386,0,0,1,5.828,2.806,5.17,5.17,0,0,1,1.111,3.055.718.718,0,0,1-.446.8.846.846,0,0,1-.278.044,1,1,0,0,1-.425-.092.731.731,0,0,1-.353-.559,4.433,4.433,0,0,0-3.422-4.142,7.387,7.387,0,0,0-2.376-.416,6.326,6.326,0,0,0-4,1.455,3.88,3.88,0,0,0-1.533,2.951c-.027.514-.32.849-.744.849Q771.163-371.126,771.124-371.129Zm6.463-7.465a4.447,4.447,0,0,1-3.169-1.324,4.471,4.471,0,0,1-1.306-3.183,4.5,4.5,0,0,1,4.481-4.487h.02a4.5,4.5,0,0,1,4.474,4.512,4.469,4.469,0,0,1-1.319,3.172,4.462,4.462,0,0,1-3.172,1.31Zm-2.951-4.53a2.97,2.97,0,0,0,2.911,3.007h.038a2.981,2.981,0,0,0,2.978-2.938,2.967,2.967,0,0,0-.85-2.119,2.951,2.951,0,0,0-2.1-.891h-.027A2.969,2.969,0,0,0,774.635-383.124Z" transform="translate(1110.595 29.205)" fill="#fff"/>
    </g>
  </g>
</svg>
