<svg xmlns="http://www.w3.org/2000/svg" width="17.482" height="17.482" viewBox="0 0 17.482 17.482">
  <g id="Group_7" data-name="Group 7" transform="translate(0 0)">
    <path id="Path_25" data-name="Path 25" d="M2075.611-174.716a8.739,8.739,0,0,1-8.734,8.756,8.74,8.74,0,0,1-8.747-8.743,8.738,8.738,0,0,1,8.752-8.738A8.739,8.739,0,0,1,2075.611-174.716Zm-8.752,7.53a7.514,7.514,0,0,0,7.526-7.494,7.512,7.512,0,0,0-7.485-7.534,7.514,7.514,0,0,0-7.543,7.511A7.515,7.515,0,0,0,2066.858-167.187Z" transform="translate(-2058.129 183.442)"/>
    <path id="Path_26" data-name="Path 26" d="M2153.691-120.9a9.1,9.1,0,0,1,1.407.423,1.68,1.68,0,0,1,.781,2.418,4.559,4.559,0,0,1-1,1.183,1.694,1.694,0,0,0-.7,1.431c.018.361-.161.505-.559.53-.477.03-.688-.095-.728-.466a2.21,2.21,0,0,1,.835-2.117,5.78,5.78,0,0,0,.688-.608.815.815,0,0,0,.2-.883.827.827,0,0,0-.755-.5,1.212,1.212,0,0,0-1.3.551.542.542,0,0,1-.783.25.649.649,0,0,1-.349-.8,1.455,1.455,0,0,1,.886-1.019A12.068,12.068,0,0,1,2153.691-120.9Z" transform="translate(-2145.027 125.173)"/>
    <path id="Path_27" data-name="Path 27" d="M2170.392-19.667a.9.9,0,0,1-.859-.916.887.887,0,0,1,.882-.855.881.881,0,0,1,.873.9A.889.889,0,0,1,2170.392-19.667Z" transform="translate(-2161.926 32.5)"/>
  </g>
</svg>
